<svg xmlns="http://www.w3.org/2000/svg" viewBox="0 0 120 120"><circle cx="60" cy="60" r="55" fill="#f5f0e7" stroke="#241d17" stroke-width="2"/><path d="M60 94V28M60 42c-11-1-18-7-21-17 11 0 18 5 21 17Zm0 8c12-1 20-7 23-18-12 0-20 6-23 18ZM60 58c-9-1-15-6-18-14 9 0 15 5 18 14Zm0 8c10-1 17-6 20-15-10 0-17 5-20 15Z" fill="none" stroke="#241d17" stroke-width="2" stroke-linecap="round" stroke-linejoin="round"/><path d="M60 70c-10 6-17 13-22 23M60 72c10 5 18 13 23 22M60 78c-3 6-4 13-4 20M46 84l-9 1M74 84l10 1" fill="none" stroke="#241d17" stroke-width="2" stroke-linecap="round"/></svg>